<svg id="visual" viewBox="0 0 960 540" width="960" height="540" xmlns="http://www.w3.org/2000/svg" xmlns:xlink="http://www.w3.org/1999/xlink" version="1.1"><rect x="0" y="0" width="960" height="540" fill="#faf2ff"></rect><defs><linearGradient id="grad1_0" x1="43.8%" y1="100%" x2="100%" y2="0%"><stop offset="14.444444444444446%" stop-color="#faf2ff" stop-opacity="1"></stop><stop offset="85.55555555555554%" stop-color="#faf2ff" stop-opacity="1"></stop></linearGradient></defs><defs><linearGradient id="grad2_0" x1="0%" y1="100%" x2="56.3%" y2="0%"><stop offset="14.444444444444446%" stop-color="#faf2ff" stop-opacity="1"></stop><stop offset="85.55555555555554%" stop-color="#faf2ff" stop-opacity="1"></stop></linearGradient></defs><g transform="translate(960, 540)"><path d="M-324 0C-290.2 -34.4 -256.3 -68.7 -232.8 -96.4C-209.3 -124.1 -196.1 -145.2 -182.4 -182.4C-168.7 -219.7 -154.5 -273 -124 -299.3C-93.5 -325.6 -46.7 -324.8 0 -324L0 0Z" fill="#282440"></path></g><g transform="translate(0, 0)"><path d="M324 0C249.3 16.9 174.5 33.9 158 65.4C141.4 97 183.1 143.1 188.1 188.1C193.1 233.1 161.4 276.9 124 299.3C86.5 321.8 43.3 322.9 0 324L0 0Z" fill="#282440"></path></g></svg>